<svg xmlns="http://www.w3.org/2000/svg" width="26.624" height="38.035" viewBox="0 0 26.624 38.035"><defs><style>.a{fill:#fff;}</style></defs><g transform="translate(-88 -8)"><path class="a" d="M91.17,46.035H113.99a.634.634,0,0,0,.634-.634V30.187a3.18,3.18,0,0,0-.373-1.492l-4.7-8.81V11.17A3.173,3.173,0,0,0,106.383,8H91.17A3.173,3.173,0,0,0,88,11.17v31.7A3.173,3.173,0,0,0,91.17,46.035Zm17.749-10.143a.634.634,0,0,0,.634-.634V22.58l3.58,6.712a1.91,1.91,0,0,1,.224.895v14.58h-3.8a5.712,5.712,0,0,1-5.7-5.585.634.634,0,0,0-.1-.475L99.64,32.621a1.9,1.9,0,1,1,3.151-2.129l.011.016,3.7,5.122a.634.634,0,0,0,.514.262Zm-9.456-1.268H96.241a1.268,1.268,0,1,1,0-2.536h1.851a3.149,3.149,0,0,0,.5,1.242Zm5.652-12.679h0a1.317,1.317,0,0,1-1.358,1.268,1.382,1.382,0,0,1-1.14-.579.634.634,0,0,0-1.04,0,1.412,1.412,0,0,1-2.28,0,.634.634,0,0,0-1.04,0,1.412,1.412,0,0,1-2.28,0,.634.634,0,0,0-1.04,0,1.382,1.382,0,0,1-1.14.579,1.317,1.317,0,0,1-1.358-1.268ZM93.769,20.678a3.175,3.175,0,0,1,3.106-2.536h3.8a3.175,3.175,0,0,1,3.106,2.536Zm-.179,3.8v-.009c.068.005.136.009.206.009a2.681,2.681,0,0,0,1.66-.571,2.7,2.7,0,0,0,3.32,0,2.7,2.7,0,0,0,3.32,0,2.681,2.681,0,0,0,1.66.571c.069,0,.138,0,.206-.009v.009a.647.647,0,0,1,0,1.268H93.59a.647.647,0,0,1,0-1.268Zm.115,2.536h10.143v.634a.635.635,0,0,1-.634.634H94.339a.635.635,0,0,1-.634-.634ZM89.268,11.17a1.9,1.9,0,0,1,1.9-1.9h15.214a1.9,1.9,0,0,1,1.9,1.9v1.9H89.268Zm0,3.17h19.017V34.624h-.944l-3.506-4.851a3.2,3.2,0,0,0-.2-.267,1.9,1.9,0,0,0,1.483-1.855V26.567a1.949,1.949,0,0,0,.634-1.451,1.97,1.97,0,0,0-.38-1.17,2.5,2.5,0,0,0,1.014-2,1.269,1.269,0,0,0-1.268-1.268h-.046a4.444,4.444,0,0,0-4.391-3.8h-3.8a4.444,4.444,0,0,0-4.391,3.8h-.046a1.269,1.269,0,0,0-1.268,1.268,2.5,2.5,0,0,0,1.014,2,1.97,1.97,0,0,0-.38,1.17,1.949,1.949,0,0,0,.634,1.451v1.084a1.9,1.9,0,0,0,1.9,1.9h4.42a3.17,3.17,0,0,0-.625,1.268H96.241a2.536,2.536,0,1,0,0,5.071h4.079l1.713,2.536H89.268Zm0,25.356H102.61a6.973,6.973,0,0,0,2.941,5.071H91.17a1.9,1.9,0,0,1-1.9-1.9Z"/><circle class="a" cx="0.384" cy="0.384" r="0.384" transform="translate(94.515 9.51)"/><path class="a" d="M211,40h-2.622a.375.375,0,1,0,0,.749H211A.375.375,0,0,0,211,40Z" transform="translate(-109.431 -30.502)"/><path class="a" d="M201.124,418.248A1.124,1.124,0,1,0,200,417.124,1.124,1.124,0,0,0,201.124,418.248Zm0-1.5a.375.375,0,1,1-.375.375A.375.375,0,0,1,201.124,416.749Z" transform="translate(-102.52 -373.337)"/></g></svg>