<svg xmlns="http://www.w3.org/2000/svg" width="38.381" height="46.001" viewBox="0 0 38.381 46.001"><defs><style>.a{fill:#fff;}</style></defs><g transform="translate(0.001 -0.001)"><path class="a" d="M327.861,101.817a.829.829,0,1,1-.829-.829A.829.829,0,0,1,327.861,101.817Zm0,0" transform="translate(-296.785 -91.886)"/><path class="a" d="M33.183,282.225a3.034,3.034,0,0,0-3.08.332l-4.987,3.794a2.728,2.728,0,0,0-2.53-1.579H12.307a4.724,4.724,0,0,0-3.2,1.215L5.089,289.66a.967.967,0,0,0-1.184.076L.422,292.925a.886.886,0,0,0-.157.114.781.781,0,0,0,0,1.173l.016.014h0l7.172,6.564a.967.967,0,0,0,1.282,0l3.625-3.317a.781.781,0,0,0,0-1.173l2.447-2.24h8.183a4.764,4.764,0,0,0,3.062-1.09l7.779-6.526A2.477,2.477,0,0,0,33.183,282.225ZM8.093,299.031,2.2,293.64,4.546,291.5l5.89,5.391ZM32.6,285.222l-7.779,6.526a2.859,2.859,0,0,1-1.837.654H14.43a.951.951,0,0,0-.64.243l-2.712,2.482-4.7-4.3,4.006-3.666a2.834,2.834,0,0,1,1.923-.729H22.586a.833.833,0,1,1,0,1.659h-7.25a.833.833,0,1,0,0,1.659h7.25a2.832,2.832,0,0,0,2.108-.918l6.572-5a1.089,1.089,0,0,1,1.107-.121.887.887,0,0,1,.232,1.514Zm0,0" transform="translate(0 -255.031)"/><path class="a" d="M29.47,16.442l-.2.643H28.145a.832.832,0,1,0,0,1.659h1.248l1.057,1.942a2.729,2.729,0,0,0,2.423,1.376H57.732a2.729,2.729,0,0,0,2.423-1.376l1.057-1.942h1.248a.832.832,0,1,0,0-1.659H61.336l-.2-.642a15.618,15.618,0,0,0-2.859-5.264.957.957,0,0,0-1.264-.165.785.785,0,0,0-.179,1.161A14.024,14.024,0,0,1,59.4,16.9l.058.187H31.149l.058-.187A14.968,14.968,0,0,1,45.3,6.635a14.524,14.524,0,0,1,6.4,1.488.944.944,0,0,0,1.221-.345.8.8,0,0,0-.375-1.121,16.8,16.8,0,0,0-4.308-1.41,3.12,3.12,0,0,0,.676-1.929,3.625,3.625,0,0,0-7.224,0,3.12,3.12,0,0,0,.676,1.929,16.727,16.727,0,0,0-12.9,11.2ZM57.732,20.4H32.874a.91.91,0,0,1-.808-.459l-.653-1.2H59.193l-.653,1.2a.91.91,0,0,1-.808.459ZM43.5,3.318a1.812,1.812,0,0,1,3.612,0,1.812,1.812,0,0,1-3.612,0Zm0,0" transform="translate(-24.983 0)"/></g></svg>