<svg xmlns="http://www.w3.org/2000/svg" width="61.415" height="33.558" viewBox="0 0 61.415 33.558"><defs><style>.a{fill:#fff;}</style></defs><g transform="translate(-0.001 -116.12)"><g transform="translate(0.001 116.12)"><g transform="translate(0)"><path class="a" d="M346.7,117.017a2.77,2.77,0,0,0-2.038-.9h-.82a4.1,4.1,0,0,0-4.1,3.758l-.887,10.109a1.713,1.713,0,0,1-1.716,1.572h-7.68a4.468,4.468,0,0,0-4.463,4.463v.443a2.7,2.7,0,0,0,2.7,2.7h1.646l-1.621,5.294,0,.012-1.239,4.047a.9.9,0,1,0,1.72.527l1.045-3.413h12.339l1.045,3.413a.9.9,0,1,0,1.72-.527l-2.941-9.6a6.6,6.6,0,0,0,1.483-.622.9.9,0,1,0-.895-1.561,4.816,4.816,0,0,1-2.392.635H327.685a.9.9,0,0,1-.9-.9v-.443a2.667,2.667,0,0,1,2.664-2.664h7.68a3.5,3.5,0,0,0,3.508-3.214l.887-10.11a2.306,2.306,0,0,1,2.31-2.116h.82a.965.965,0,0,1,.961,1.049l-1.229,14a4.842,4.842,0,0,1-.2,1.015.9.9,0,0,0,1.718.535,6.656,6.656,0,0,0,.274-1.393l1.229-14A2.773,2.773,0,0,0,346.7,117.017Zm-15.482,22.145h8.379l1.429,4.667H329.784Z" transform="translate(-286.006 -116.12)"/><path class="a" d="M17.97,131.56H10.29a1.713,1.713,0,0,1-1.716-1.572l-.887-10.109a4.1,4.1,0,0,0-4.1-3.758h-.82a2.764,2.764,0,0,0-2.753,3.006l1.229,14a6.617,6.617,0,0,0,4.785,5.786l-2.94,9.6a.9.9,0,1,0,1.72.527l1.045-3.413H18.189l1.045,3.413a.9.9,0,0,0,1.72-.527l-1.239-4.047,0-.012-1.621-5.294h1.646a2.7,2.7,0,0,0,2.7-2.7v-.443A4.468,4.468,0,0,0,17.97,131.56ZM6.4,143.83l1.429-4.667h8.379l1.429,4.667Zm14.233-7.364a.9.9,0,0,1-.9.9H7.829a4.931,4.931,0,0,1-.568-.034h0a4.785,4.785,0,0,1-4.228-4.36l-1.229-14a.965.965,0,0,1,.961-1.049h.82a2.306,2.306,0,0,1,2.31,2.116l.887,10.109h0a3.5,3.5,0,0,0,3.508,3.214h7.68a2.667,2.667,0,0,1,2.664,2.664v.444Z" transform="translate(-0.001 -116.121)"/><path class="a" d="M143,190.744a3.24,3.24,0,0,0-3.135-2.424h-.557V171.943h11.078a2.115,2.115,0,0,0,2.071-2.54,4.081,4.081,0,0,0-3.982-3.247h-18.7a.9.9,0,0,0,0,1.8h18.7a2.275,2.275,0,0,1,2.22,1.81.315.315,0,0,1-.309.379H121.956a.315.315,0,0,1-.309-.379,2.275,2.275,0,0,1,2.22-1.81h1.689a.9.9,0,1,0,0-1.8h-1.689a4.08,4.08,0,0,0-3.982,3.247,2.115,2.115,0,0,0,2.071,2.54h11.078v16.378h-.557a3.24,3.24,0,0,0-3.135,2.424l-.211.812a1.722,1.722,0,0,0,1.667,2.156h10.751a1.722,1.722,0,0,0,1.667-2.156Zm-8.171-18.8h2.68v16.378h-2.68ZM130.9,191.912l.186-.715a1.44,1.44,0,0,1,1.393-1.077h7.393a1.44,1.44,0,0,1,1.393,1.077l.186.715Z" transform="translate(-105.466 -160.154)"/></g></g></g></svg>