<svg xmlns="http://www.w3.org/2000/svg" width="41.057" height="40.968" viewBox="0 0 41.057 40.968"><defs><style>.a{fill:#fff;}</style></defs><g transform="translate(0 -0.516)"><g transform="translate(0 0.516)"><g transform="translate(0 0)"><rect class="a" width="2.469" height="0.823" transform="translate(30.8 27.72)"/><rect class="a" width="2.469" height="0.823" transform="translate(25.07 27.72)"/><rect class="a" width="2.469" height="0.823" transform="translate(19.34 27.72)"/><path class="a" d="M40.449,14.693,26.881,1.123A2.048,2.048,0,0,0,25.423.516h-.006a2.029,2.029,0,0,0-1.446.607L9.577,15.514H2.057A2.057,2.057,0,0,0,0,17.571v19.2a2.057,2.057,0,0,0,2.057,2.057h10.16l2.046,2.048a2.048,2.048,0,0,0,1.458.607h.005a2.03,2.03,0,0,0,1.447-.607l2.05-2.048H34.972a2.057,2.057,0,0,0,2.057-2.057V21.023l3.416-3.416a2.046,2.046,0,0,0,0-2.914ZM31.726,7.91l-7.6,7.6H18.3L28.814,5ZM24.941,2.09a.676.676,0,0,1,.956-.011l.011.011,1.936,1.939L16.358,15.514H11.516ZM16.2,39.91a.667.667,0,0,1-.48.206.686.686,0,0,1-.488-.206l-1.077-1.081h3.128Zm19.456-3.139a.686.686,0,0,1-.686.686H2.057a.686.686,0,0,1-.686-.686v-9.6H35.658Zm0-10.972H1.371V21.686H35.658Zm0-5.486H1.371V17.571a.686.686,0,0,1,.686-.686H34.972a.686.686,0,0,1,.686.686Zm3.822-3.68h0l-2.45,2.45V17.571a2.057,2.057,0,0,0-2.057-2.057H26.058l6.635-6.635,6.784,6.784a.685.685,0,0,1,.206.49A.672.672,0,0,1,39.479,16.634Z" transform="translate(0 -0.516)"/><path class="a" d="M26.518,362.381a1.646,1.646,0,0,0,.168-.168,1.631,1.631,0,0,0,2.166.279,1.673,1.673,0,0,0,.714-1.356,1.646,1.646,0,0,0-1.646-1.646,1.249,1.249,0,0,0-.244.021l-.011,0h-.012a1.624,1.624,0,0,0-.968.546,1.646,1.646,0,1,0-.168,2.321Zm1.3-2.06a.5.5,0,0,1,.1-.009.823.823,0,0,1,.823.823.807.807,0,0,1-.162.483c-.015.02-.026.041-.043.062l-.01.009a.818.818,0,1,1-.712-1.368Zm-2.365-.009a.823.823,0,1,1-.823.823A.823.823,0,0,1,25.452,360.313Z" transform="translate(-22.572 -324.64)"/></g></g></g></svg>